<svg xmlns="http://www.w3.org/2000/svg" version="1.1" xmlns:xlink="http://www.w3.org/1999/xlink" xmlns:svgjs="http://svgjs.dev/svgjs" width="100%" height="100%" viewBox="0 0 1000 600"><rect width="1000" height="600" x="0" y="0" fill="#f2655a"/><g><rect width="333.3333333333333" height="333.3333333333333" rx="13.333333333333334" ry="13.333333333333334" y="279.8131178679391" fill="#0d190f" transform="matrix(0.48526562487782465,0,0,0.48526562487782465,0,83.33870970900665)" x="257.5908813476562"/><path d="M473.02242570309056 521.4797842995979L473.02242570309056 420.7655016344749L475.1652827810719 398.26550231567086L474.09385424208125 398.26550231567086L465.9390925842078 418.83097788351955L426.95099852649173 486.53930916695776L421.59385583153835 486.53930916695776L380.22480946495415 418.6226445564936L372.5164763649935 398.26550231567086L371.44504782600285 398.26550231567086L374.45100011594883 420.557168307449L374.45100011594883 521.4797842995979L357.72481014615005 521.4797842995979L357.72481014615005 371.47978884090406L370.99861926809007 371.47978884090406L417.9331416566536 448.20597699418045L425.0164747755363 464.9024050601184L425.43314142958826 464.9024050601184L432.07004599055824 447.75954843626766L476.8617113011405 371.47978884090406L490.79028230801913 371.47978884090406L490.79028230801913 521.4797842995979L473.02242570309056 521.4797842995979Z " fill="#fffff5" transform="matrix(0.48526562487782465,0,0,0.48526562487782465,0,83.33870970900665)"/><path d="M761.6147380128076 487.06909042952736L761.6147380128076 410.76120924852177L763.2383099528291 393.71370387829717L762.4265239828184 393.71370387829717L756.2479307666258 409.2954845804469L726.7079413023476 460.5958479630674L722.6490114522942 460.5958479630674L691.3050531657701 409.1376373085004L685.4647041037487 393.71370387829717L684.6529181337379 393.71370387829717L686.9304287718236 410.6033619765753L686.9304287718236 487.06909042952736L674.2575477955454 487.06909042952736L674.2575477955454 373.41905462802976L684.3146739795668 373.41905462802976L719.875409388091 431.55194992490686L725.2422166342728 444.2022812909069L725.5579111781659 444.2022812909069L730.5864742701766 431.21370577073577L764.5236377386793 373.41905462802976L775.0768553488184 373.41905462802976L775.0768553488184 487.06909042952736L761.6147380128076 487.06909042952736ZM804.143302997257 421.6301214025539L800.0843731472036 411.88868976242554Q806.262966363396 408.1680040665432 814.4484748943372 406.38658485457523Q822.6565330355565 404.58261603232927 831.5861787056741 404.58261603232927L831.5861787056741 404.58261603232927Q840.0197329496742 404.58261603232927 845.1384944827972 406.86012667041484Q850.2572560159202 409.1376373085004 852.9406596390112 412.79067417354855Q855.601513651824 416.4437110385967 856.503498062947 420.8183354325432Q857.40548247407 425.21550943676783 857.40548247407 429.59013383071436L857.40548247407 429.59013383071436Q857.40548247407 439.33156547084275 856.9093910479523 448.5994552951315Q856.4132996218347 457.8447955091422 856.4132996218347 466.12050248119573L856.4132996218347 466.12050248119573Q856.4132996218347 472.14124842544174 856.9093910479523 477.4855060613455Q857.40548247407 482.85231330752737 858.6908102599202 487.3847849734204L858.6908102599202 487.3847849734204L849.1072258917384 487.3847849734204L845.7022347397491 476.01978139327065L844.8904487697383 476.01978139327065Q843.4247241016635 478.2972920313562 841.2374119046902 480.4846042283295Q839.050099707717 482.69446603558083 835.9608030996206 484.38568680643647Q832.8715064915244 486.0994571875701 828.812576641471 487.2269377014739Q824.7536467914175 488.3769678256557 819.5672364274602 488.3769678256557L819.5672364274602 488.3769678256557Q814.380826063503 488.3769678256557 809.9160032284442 486.7533958856343Q805.4511803933854 485.12982394561294 802.2040365133425 482.1081761683509Q798.9568926332997 479.1090780013669 797.0852749802195 474.8923008793669Q795.2136573271393 470.6755237573669 795.2136573271393 465.3087165111851L795.2136573271393 465.3087165111851Q795.2136573271393 458.1604900530353 798.1451066632891 453.3799726740834Q801.0540063891607 448.5994552951315 806.3306151942303 445.7582044000941Q811.6072239992998 442.91695350505665 819.0034961705084 441.69927455004057Q826.3772187314388 440.48159559502454 835.3068644015566 440.48159559502454L835.3068644015566 440.48159559502454Q837.584375039642 440.48159559502454 839.7716872366153 440.48159559502454Q841.9815490438667 440.48159559502454 844.2365100716742 440.7972901389176L844.2365100716742 440.7972901389176Q844.7326014977918 435.9265743188534 844.7326014977918 432.0254917407465L844.7326014977918 432.0254917407465Q844.7326014977918 423.0958460706288 841.169763073856 419.53300764669297Q837.584375039642 415.94761961247906 828.1811875536848 415.94761961247906L828.1811875536848 415.94761961247906Q825.4075854894817 415.94761961247906 822.2506400505512 416.3535125974844Q819.0711450013426 416.7594055824897 815.7563522904655 417.5035427216662Q812.4190099693104 418.2251302505646 809.4199118023265 419.2849619336341Q806.4208136353426 420.3447936167036 804.143302997257 421.6301214025539L804.143302997257 421.6301214025539ZM823.1300748513961 477.0119642455059L823.1300748513961 477.0119642455059Q827.6850961275671 477.0119642455059 831.247934551503 475.7942852904899Q834.8333225857169 474.57660633547385 837.4265277676956 472.7049886823936Q840.0197329496742 470.8333710293134 841.7335033308079 468.55586039122784Q843.4247241016635 466.27834975314227 844.2365100716742 464.1812359972813L844.2365100716742 464.1812359972813L844.2365100716742 450.69656905099254Q841.9815490438667 450.53872177904594 839.6138399646688 450.4485233379337Q837.268680495749 450.38087450709946 834.9911698576635 450.38087450709946L834.9911698576635 450.38087450709946Q829.9626067656528 450.38087450709946 825.1595397764228 450.9446147640513Q820.379022397471 451.5083550210032 816.7259855324228 453.06427813019036Q813.0729486673747 454.59765162909946 810.8856364704014 457.28105525219036Q808.698324273428 459.9644588752813 808.698324273428 464.02338872533477L808.698324273428 464.02338872533477Q808.698324273428 469.70589051540964 812.7572541234816 473.3589273804578Q816.8161839735351 477.0119642455059 823.1300748513961 477.0119642455059ZM922.9797491627119 405.8904934284576L920.2286967087867 418.3829775225111Q915.3579808887225 416.7594055824897 910.983356494776 416.7594055824897L910.983356494776 416.7594055824897Q903.9929773085727 416.7594055824897 899.9340474585193 420.59283932976246Q895.8751176084658 424.4037234667571 894.9054843665086 430.24407252877853L894.9054843665086 430.24407252877853L894.9054843665086 487.06909042952736L881.9169088463374 487.06909042952736L881.9169088463374 405.8904934284576L891.0044017884017 405.8904934284576L893.4397596984337 415.7897723405325L894.0936983964979 415.7897723405325Q897.1829950045941 410.26511782240414 901.4674209574283 407.26601965542017Q905.7743965205407 404.2669214884362 912.4265315525728 404.2669214884362L912.4265315525728 404.2669214884362Q917.1394001006904 404.2669214884362 922.9797491627119 405.8904934284576L922.9797491627119 405.8904934284576ZM932.5633335308936 446.4797919289925L932.5633335308936 446.4797919289925Q932.5633335308936 425.869448134832 941.7410249140702 414.9103375396876Q950.9187162972468 403.9512269445432 968.124068939418 403.9512269445432L968.124068939418 403.9512269445432Q977.211561881482 403.9512269445432 983.9538953546265 406.95032511152715Q990.6962288277708 409.9494232785111 995.0708532217174 415.5417266274737Q999.4680272259419 421.1565795867143 1001.565140981803 429.0263935737625Q1003.6848043479421 436.89620756081064 1003.6848043479421 446.4797919289925L1003.6848043479421 446.4797919289925Q1003.6848043479421 467.09013572315297 994.5071129647655 478.0492463182974Q985.3294215815889 489.0083569134418 968.124068939418 489.0083569134418L968.124068939418 489.0083569134418Q959.0365759973537 489.0083569134418 952.2942425242092 486.0092587464578Q945.5519090510649 483.01016057947385 941.1772846571183 477.4178572305113Q936.7801106528938 471.80300427127065 934.6829968970327 463.93319028422246Q932.5633335308936 456.06337629717433 932.5633335308936 446.4797919289925ZM946.0480004771824 446.4797919289925L946.0480004771824 446.4797919289925Q946.0480004771824 452.65838514518504 947.2656794321985 458.3408869352599Q948.4833583872146 464.02338872533477 951.0765635691932 468.2401658473348Q953.6697687511718 472.45694296933476 957.8865458731719 475.0501481513134Q962.1258726054499 477.64335333329205 968.124068939418 477.64335333329205L968.124068939418 477.64335333329205Q990.2001374016533 477.82375021551667 990.2001374016533 446.4797919289925L990.2001374016533 446.4797919289925Q990.2001374016533 440.14335144085345 988.9824584466372 434.4608496507785Q987.7647794916212 428.77834786070366 985.1715743096424 424.56157073870367Q982.5783691276639 420.3447936167036 978.3615920056637 417.81923726555925Q974.1222652733858 415.3162305246929 968.124068939418 415.3162305246929L968.124068939418 415.3162305246929Q946.0480004771824 415.13583364246836 946.0480004771824 446.4797919289925ZM1019.5822795939848 446.4797919289925L1019.5822795939848 446.4797919289925Q1019.5822795939848 425.869448134832 1028.7599709771612 414.9103375396876Q1037.937662360338 403.9512269445432 1055.143015002509 403.9512269445432L1055.143015002509 403.9512269445432Q1064.2305079445732 403.9512269445432 1070.9728414177175 406.95032511152715Q1077.7151748908618 409.9494232785111 1082.0897992848086 415.5417266274737Q1086.4869732890334 421.1565795867143 1088.5840870448942 429.0263935737625Q1090.703750411033 436.89620756081064 1090.703750411033 446.4797919289925L1090.703750411033 446.4797919289925Q1090.703750411033 467.09013572315297 1081.5260590278567 478.0492463182974Q1072.3483676446804 489.0083569134418 1055.143015002509 489.0083569134418L1055.143015002509 489.0083569134418Q1046.0555220604447 489.0083569134418 1039.3131885873004 486.0092587464578Q1032.570855114156 483.01016057947385 1028.1962307202093 477.4178572305113Q1023.8216063262629 471.80300427127065 1021.7019429601238 463.93319028422246Q1019.5822795939848 456.06337629717433 1019.5822795939848 446.4797919289925ZM1033.0669465402739 446.4797919289925L1033.0669465402739 446.4797919289925Q1033.0669465402739 452.65838514518504 1034.2846254952897 458.3408869352599Q1035.502304450306 464.02338872533477 1038.0955096322846 468.2401658473348Q1040.6887148142632 472.45694296933476 1044.928041546541 475.0501481513134Q1049.1448186685411 477.64335333329205 1055.143015002509 477.64335333329205L1055.143015002509 477.64335333329205Q1077.2190834647445 477.82375021551667 1077.2190834647445 446.4797919289925L1077.2190834647445 446.4797919289925Q1077.2190834647445 440.14335144085345 1076.0014045097282 434.4608496507785Q1074.7837255547124 428.77834786070366 1072.1905203727338 424.56157073870367Q1069.5973151907551 420.3447936167036 1065.380538068755 417.81923726555925Q1061.1637609467548 415.3162305246929 1055.143015002509 415.3162305246929L1055.143015002509 415.3162305246929Q1033.0669465402739 415.13583364246836 1033.0669465402739 446.4797919289925ZM1176.2569718060495 487.06909042952736L1163.2683962858782 487.06909042952736L1163.2683962858782 440.7972901389176Q1163.2683962858782 428.1244091626395 1159.6153594208304 421.72031984366623Q1155.962322555782 415.3162305246929 1146.2208909156534 415.3162305246929L1146.2208909156534 415.3162305246929Q1137.629489399707 415.3162305246929 1132.0146364404663 419.9389006316983Q1126.4223330915038 424.56157073870367 1124.1448224534183 431.55194992490686L1124.1448224534183 431.55194992490686L1124.1448224534183 487.06909042952736L1111.156246933247 487.06909042952736L1111.156246933247 405.8904934284576L1120.2437398753113 405.8904934284576L1122.6790977853434 415.7897723405325L1123.3330364834078 415.7897723405325Q1127.2341190615148 410.6033619765753 1133.8186052627125 407.26601965542017Q1140.3805418536322 403.9512269445432 1149.4680347956964 403.9512269445432L1149.4680347956964 403.9512269445432Q1156.1427194380067 403.9512269445432 1161.1712825300174 405.4846004434523Q1166.199845622028 407.0179739423614 1169.5371879431832 410.9190565204683Q1172.8519806540603 414.8201390985753 1174.565751035194 421.40462529977316Q1176.2569718060495 427.96656189069296 1176.2569718060495 438.0462376849925L1176.2569718060495 438.0462376849925L1176.2569718060495 487.06909042952736ZM1295.927753551793 458.1604900530353L1295.927753551793 458.1604900530353Q1295.927753551793 451.35050774905665 1291.8688237017395 447.04353218594434Q1287.809893851686 442.73655662283204 1281.721499076606 439.421763911955Q1275.6331043015257 436.08442159079993 1268.4848778433757 433.17552186492827Q1261.336651385226 430.24407252877853 1255.2482566101457 426.09494423761276Q1249.1598618350658 421.968365556725 1245.1009319850123 415.87997078164483Q1241.0420021349587 409.7915760065646 1241.0420021349587 400.3658389103293L1241.0420021349587 400.3658389103293Q1241.0420021349587 387.06156884626506 1250.3098919592476 379.2594036900511Q1259.5552321732584 371.4797881441153 1276.6027375434828 371.4797881441153L1276.6027375434828 371.4797881441153Q1286.5020164555576 371.4797881441153 1294.6198761556648 372.92296320191207Q1302.7377358557715 374.38868786998694 1307.2927571319428 376.6661985080725L1307.2927571319428 376.6661985080725L1303.2338272818893 388.5272935143399Q1299.4905919757289 386.7233246920939 1292.2747166867448 385.09975275207256Q1285.0362917874832 383.47618081205115 1275.9487988454189 383.47618081205115L1275.9487988454189 383.47618081205115Q1265.237733963333 383.47618081205115 1259.8709267171512 388.2792478012811Q1254.5266690812473 393.059765180233 1254.5266690812473 399.5540529403185L1254.5266690812473 399.5540529403185Q1254.5266690812473 405.8904934284576 1258.5855989313009 410.1072705504576Q1262.6445287813544 414.32404767245765 1268.7329235564348 417.6613899936127Q1274.8213183315147 420.99873231476784 1281.9695447896647 424.2458761948106Q1289.0952216375363 427.4930200748534 1295.1836164126166 431.77744602768763Q1301.272011187697 436.08442159079993 1305.3309410377506 442.10516753504595Q1309.3898708878037 448.1033638690139 1309.3898708878037 457.03300953913157L1309.3898708878037 457.03300953913157Q1309.3898708878037 464.33908326922784 1306.796665705825 470.17943233124925Q1304.2034605238468 476.01978139327065 1299.1748974318357 480.2591081255487Q1294.146334339825 484.4758852475487 1286.9981078816754 486.7533958856343Q1279.8498814235259 489.0083569134418 1270.7623884814616 489.0083569134418L1270.7623884814616 489.0083569134418Q1258.5855989313009 489.0083569134418 1250.6255865031408 487.15928887063967Q1242.6655740749802 485.2876712175594 1238.2909496810335 483.01016057947385L1238.2909496810335 483.01016057947385L1242.8234213469268 470.8333710293134Q1246.5666566530872 472.95303439545245 1253.8727303831834 474.9824993204792Q1261.1788041132795 477.0119642455059 1270.2662970553438 477.0119642455059L1270.2662970553438 477.0119642455059Q1275.6331043015257 477.0119642455059 1280.3459728496432 475.9521325624364Q1285.0362917874832 474.8923008793669 1288.4638325497504 472.54714141044707Q1291.8688237017395 470.17943233124925 1293.8982886267663 466.6165939073134Q1295.927753551793 463.0312058730995 1295.927753551793 458.1604900530353ZM1318.8156079840392 417.2554970086074L1318.8156079840392 405.8904934284576L1331.4884889603172 405.8904934284576L1331.4884889603172 389.8126213001902L1344.4770644804885 386.0919356043078L1344.4770644804885 405.8904934284576L1366.5531329427236 405.8904934284576L1366.5531329427236 417.2554970086074L1344.4770644804885 417.2554970086074L1344.4770644804885 462.2194199030888Q1344.4770644804885 470.6755237573669 1346.5741782363493 474.1707133504685Q1348.6938416024882 477.64335333329205 1353.7224046944993 477.64335333329205L1353.7224046944993 477.64335333329205Q1357.939181816499 477.64335333329205 1360.870631152649 476.7639185324471Q1363.7795308785203 475.8619341213241 1367.3649189127345 474.39620945324924L1367.3649189127345 474.39620945324924L1370.273818638606 484.3180379756022Q1365.8991942446596 486.4151517314632 1360.7127838807023 487.72302912759153Q1355.503823906467 489.0083569134418 1349.5056275724992 489.0083569134418L1349.5056275724992 489.0083569134418Q1339.6063486604244 489.0083569134418 1335.5474188103708 483.4160535644792Q1331.4884889603172 477.82375021551667 1331.4884889603172 464.65477781312086L1331.4884889603172 464.65477781312086L1331.4884889603172 417.2554970086074L1318.8156079840392 417.2554970086074ZM1425.6556614815581 405.8904934284576L1422.8820594173549 418.3829775225111Q1418.0113435972908 416.7594055824897 1413.636719203344 416.7594055824897L1413.636719203344 416.7594055824897Q1406.646340017141 416.7594055824897 1402.5874101670875 420.59283932976246Q1398.5284803170339 424.4037234667571 1397.5588470750768 430.24407252877853L1397.5588470750768 430.24407252877853L1397.5588470750768 487.06909042952736L1384.5702715549055 487.06909042952736L1384.5702715549055 405.8904934284576L1393.6577644969698 405.8904934284576L1396.0931224070018 415.7897723405325L1396.7470611050662 415.7897723405325Q1399.8363577131622 410.26511782240414 1404.143333276275 407.26601965542017Q1408.4277592291087 404.2669214884362 1415.1024438714194 404.2669214884362L1415.1024438714194 404.2669214884362Q1419.7927628092584 404.2669214884362 1425.6556614815581 405.8904934284576L1425.6556614815581 405.8904934284576ZM1442.5227699695583 421.6301214025539L1438.4638401195048 411.88868976242554Q1444.6424333356972 408.1680040665432 1452.8504914769164 406.38658485457523Q1461.0360000078576 404.58261603232927 1469.9656456779753 404.58261603232927L1469.9656456779753 404.58261603232927Q1478.4217495322537 404.58261603232927 1483.5179614550984 406.86012667041484Q1488.6367229882212 409.1376373085004 1491.3201266113124 412.79067417354855Q1494.0035302344031 416.4437110385967 1494.8829650352482 420.8183354325432Q1495.7849494463712 425.21550943676783 1495.7849494463712 429.59013383071436L1495.7849494463712 429.59013383071436Q1495.7849494463712 439.33156547084275 1495.2888580202534 448.5994552951315Q1494.815316204414 457.8447955091422 1494.815316204414 466.12050248119573L1494.815316204414 466.12050248119573Q1494.815316204414 472.14124842544174 1495.2888580202534 477.4855060613455Q1495.7849494463712 482.85231330752737 1497.0928268424996 487.3847849734204L1497.0928268424996 487.3847849734204L1487.5092424743175 487.3847849734204L1484.1042513223283 476.01978139327065L1483.2924653523178 476.01978139327065Q1481.8267406842428 478.2972920313562 1479.6394284872695 480.4846042283295Q1477.429566680018 482.69446603558083 1474.3628196822 484.38568680643647Q1471.2735230741037 486.0994571875701 1467.21459322405 487.2269377014739Q1463.155663373997 488.3769678256557 1457.9467033997616 488.3769678256557L1457.9467033997616 488.3769678256557Q1452.7602930358044 488.3769678256557 1448.2954702007455 486.7533958856343Q1443.8306473656867 485.12982394561294 1440.5835034856436 482.1081761683509Q1437.336359605601 479.1090780013669 1435.4647419525209 474.8923008793669Q1433.5931242994407 470.6755237573669 1433.5931242994407 465.3087165111851L1433.5931242994407 465.3087165111851Q1433.5931242994407 458.1604900530353 1436.52457363559 453.3799726740834Q1439.45602297174 448.5994552951315 1444.7326317768097 445.7582044000941Q1450.009240581879 442.91695350505665 1457.3829631428098 441.69927455004057Q1464.779235314018 440.48159559502454 1473.7088809841357 440.48159559502454L1473.7088809841357 440.48159559502454Q1475.9863916222216 440.48159559502454 1478.1737038191945 440.48159559502454Q1480.361016016168 440.48159559502454 1482.6385266542534 440.7972901389176L1482.6385266542534 440.7972901389176Q1483.1120684700932 435.9265743188534 1483.1120684700932 432.0254917407465L1483.1120684700932 432.0254917407465Q1483.1120684700932 423.0958460706288 1479.5492300461574 419.53300764669297Q1475.9863916222216 415.94761961247906 1466.5606545259861 415.94761961247906L1466.5606545259861 415.94761961247906Q1463.809602072061 415.94761961247906 1460.6301070228524 416.3535125974844Q1457.4731615839219 416.7594055824897 1454.1358192627667 417.5035427216662Q1450.8210265518896 418.2251302505646 1447.7993787746277 419.2849619336341Q1444.8002806076438 420.3447936167036 1442.5227699695583 421.6301214025539L1442.5227699695583 421.6301214025539ZM1461.5320914339754 477.0119642455059L1461.5320914339754 477.0119642455059Q1466.0645630998683 477.0119642455059 1469.6499511340821 475.7942852904899Q1473.2127895580184 474.57660633547385 1475.8059947399965 472.7049886823936Q1478.4217495322537 470.8333710293134 1480.1129703031093 468.55586039122784Q1481.8267406842428 466.27834975314227 1482.6385266542534 464.1812359972813L1482.6385266542534 464.1812359972813L1482.6385266542534 450.69656905099254Q1480.361016016168 450.53872177904594 1478.015856547248 450.4485233379337Q1475.6481474680504 450.38087450709946 1473.3706368299645 450.38087450709946L1473.3706368299645 450.38087450709946Q1468.3420737379538 450.38087450709946 1463.5615563590022 450.9446147640513Q1458.7584893697722 451.5083550210032 1455.1054525047239 453.06427813019036Q1451.452415639676 454.59765162909946 1449.2651034427026 457.28105525219036Q1447.0777912457293 459.9644588752813 1447.0777912457293 464.02338872533477L1447.0777912457293 464.02338872533477Q1447.0777912457293 469.70589051540964 1451.1367210957828 473.3589273804578Q1455.1956509458364 477.0119642455059 1461.5320914339754 477.0119642455059ZM1509.585310936553 417.2554970086074L1509.585310936553 405.8904934284576L1522.258191912831 405.8904934284576L1522.258191912831 389.8126213001902L1535.2467674330023 386.0919356043078L1535.2467674330023 405.8904934284576L1557.3228358952379 405.8904934284576L1557.3228358952379 417.2554970086074L1535.2467674330023 417.2554970086074L1535.2467674330023 462.2194199030888Q1535.2467674330023 470.6755237573669 1537.3438811888632 474.1707133504685Q1539.4635445550025 477.64335333329205 1544.4921076470132 477.64335333329205L1544.4921076470132 477.64335333329205Q1548.708884769013 477.64335333329205 1551.6403341051628 476.7639185324471Q1554.5492338310346 475.8619341213241 1558.1346218652484 474.39620945324924L1558.1346218652484 474.39620945324924L1561.0435215911198 484.3180379756022Q1556.6688971971735 486.4151517314632 1551.4824868332162 487.72302912759153Q1546.2735268589809 489.0083569134418 1540.275330525013 489.0083569134418L1540.275330525013 489.0083569134418Q1530.3760516129382 489.0083569134418 1526.3171217628847 483.4160535644792Q1522.258191912831 477.82375021551667 1522.258191912831 464.65477781312086L1522.258191912831 464.65477781312086L1522.258191912831 417.2554970086074L1509.585310936553 417.2554970086074ZM1627.9482152861683 471.1490655732064L1632.8189311062324 480.5748026694418Q1627.9482152861683 484.4758852475487 1620.5519431149596 486.7533958856343Q1613.1782205540294 489.0083569134418 1604.8799639716976 489.0083569134418L1604.8799639716976 489.0083569134418Q1595.6346237576872 489.0083569134418 1588.8246414537084 486.0092587464578Q1581.9921095394516 483.01016057947385 1577.6174851455053 477.4178572305113Q1573.2203111412805 471.80300427127065 1571.1231973854196 464.02338872533477Q1569.0035340192808 456.22122356912087 1569.0035340192808 446.4797919289925L1569.0035340192808 446.4797919289925Q1569.0035340192808 425.6890512526074 1578.2714238435692 414.8201390985753Q1587.51676405758 403.9512269445432 1604.722116699751 403.9512269445432L1604.722116699751 403.9512269445432Q1610.2467712178795 403.9512269445432 1615.7714257360076 405.1689058995592Q1621.296080254136 406.38658485457523 1625.6707046480828 409.7915760065646Q1630.0453290420292 413.1965671585539 1632.8189311062324 419.44280920558066Q1635.5699835601577 425.6890512526074 1635.5699835601577 435.9265743188534L1635.5699835601577 435.9265743188534Q1635.5699835601577 441.29338156503525 1634.6003503182005 447.7876693251208L1634.6003503182005 447.7876693251208L1582.4882009655694 447.7876693251208Q1582.4882009655694 454.9133461729925 1583.9539256336443 460.43800069112086Q1585.3971006914408 465.96265520924925 1588.4863972995372 469.77353934624387Q1591.5756939076336 473.58442348323854 1596.5366081688098 475.61388840826527Q1601.4749728197085 477.64335333329205 1608.623199277858 477.64335333329205L1608.623199277858 477.64335333329205Q1614.1478537959865 477.64335333329205 1619.672508314115 475.7040868493776Q1625.174613221965 473.76482036546315 1627.9482152861683 471.1490655732064L1627.9482152861683 471.1490655732064ZM1604.8799639716976 415.3162305246929L1604.8799639716976 415.3162305246929Q1595.318929213794 415.3162305246929 1589.5462289826069 420.3447936167036Q1583.7735287514197 425.37335670871437 1582.6460482375155 437.5501462588748L1582.6460482375155 437.5501462588748L1622.9196521941576 437.5501462588748Q1622.9196521941576 425.21550943676783 1618.20678364604 420.25459517559136Q1613.4939150979221 415.3162305246929 1604.8799639716976 415.3162305246929ZM1716.4328860173346 409.2954845804469L1716.4328860173346 490.8123257356878Q1716.4328860173346 506.5519537097841 1708.0669806041683 514.0158747118269Q1699.701075191003 521.4797957138696 1683.3075085188425 521.4797957138696L1683.3075085188425 521.4797957138696Q1673.5660768787138 521.4797957138696 1667.63552937558 520.2621167588536Q1661.7049818724463 519.0444378038376 1657.4882047504466 517.1051713199231L1657.4882047504466 517.1051713199231L1660.8931959024358 506.05586228366644Q1664.6364312085962 507.5215869517413 1669.191452484767 508.82946434786965Q1673.7239241506604 510.11479213371996 1681.0299978807566 510.11479213371996L1681.0299978807566 510.11479213371996Q1687.8625297950134 510.11479213371996 1692.1469557478476 508.8971131787039Q1696.45393131096 507.67943422368785 1699.0471364929385 504.83818332865036Q1701.6628912851952 501.9969324336129 1702.6325245271523 497.53210959855414Q1703.60215776911 493.06728676349525 1703.60215776911 486.9112431575808L1703.60215776911 486.9112431575808L1703.60215776911 479.1090780013669L1702.9482190710455 479.1090780013669Q1699.701075191003 483.82194654948455 1694.6725120989922 486.34750290062897Q1689.6439490069815 488.8505096414953 1681.5260893068744 488.8505096414953L1681.5260893068744 488.8505096414953Q1665.132522634714 488.8505096414953 1657.420555919612 478.6355361855273Q1649.7085892045106 468.3980131192813 1649.7085892045106 446.79548647288556L1649.7085892045106 446.79548647288556Q1649.7085892045106 426.02729540677853 1659.6078681165855 415.2260320835806Q1669.5071470286603 404.42476876038273 1688.8321630369705 404.42476876038273L1688.8321630369705 404.42476876038273Q1698.0775032509814 404.42476876038273 1704.6619894521791 405.8904934284576Q1711.2239260430993 407.3562180965325 1716.4328860173346 409.2954845804469L1716.4328860173346 409.2954845804469ZM1683.8035999449598 477.4855060613455L1683.8035999449598 477.4855060613455Q1692.0793069170136 477.4855060613455 1696.792175465131 473.3589273804578Q1701.4824944029706 469.209799089292 1703.4443104971633 460.43800069112086L1703.4443104971633 460.43800069112086L1703.4443104971633 418.8790689486288Q1696.9500227370777 415.7897723405325 1686.8703469427783 415.7897723405325L1686.8703469427783 415.7897723405325Q1675.8435875167997 415.7897723405325 1669.5071470286603 423.25369334257533Q1663.1707065405212 430.74016395489616 1663.1707065405212 446.637639200939L1663.1707065405212 446.637639200939Q1663.1707065405212 453.4701711151957 1664.3207366647034 459.1526729052706Q1665.4482171786067 464.8351746953455 1667.8835750886387 468.894104545399Q1670.3189329986708 472.95303439545245 1674.2200155767782 475.20799542325994Q1678.1210981548852 477.4855060613455 1683.8035999449598 477.4855060613455ZM1745.8150282096658 405.8904934284576L1765.2978914899227 458.49873420720644L1769.852912766094 474.08051490935617L1770.6646987361046 474.08051490935617L1774.2275371600404 458.3408869352599L1789.9671651341368 405.8904934284576L1803.1361375365323 405.8904934284576L1779.0982529801045 478.79338345747385Q1776.3472005261797 486.7533958856343 1773.6637969030885 494.2173168876771Q1770.9803932799978 501.6812378897199 1767.7332493999547 507.5215869517413Q1764.4861055199121 513.3619360137627 1760.4271756698586 516.8571256068644Q1756.368245819805 520.3523151999659 1751.001438573623 520.3523151999659L1751.001438573623 520.3523151999659Q1745.1610895116019 520.3523151999659 1741.4404038157195 518.7287432599446L1741.4404038157195 518.7287432599446L1743.695364843527 507.5215869517413Q1745.8150282096658 508.333372921752 1747.7542946935805 508.333372921752L1747.7542946935805 508.333372921752Q1752.3093159697514 508.333372921752 1756.5260930917516 503.55285554280016Q1760.7428702137518 498.74978855357017 1763.516472277955 487.06909042952736L1763.516472277955 487.06909042952736L1730.8871862055803 405.8904934284576L1745.8150282096658 405.8904934284576Z " fill="#0d190f" transform="matrix(0.48526562487782465,0,0,0.48526562487782465,0,83.33870970900665)"/></g></svg>